<svg width="601" height="329" viewBox="0 0 601 329" fill="none" xmlns="http://www.w3.org/2000/svg">
	<path fill-rule="evenodd" clip-rule="evenodd" d="M645.829 355.422C645.829 358.325 645.776 361.228 645.563 364.13C645.723 366.867 645.829 369.603 645.829 372.393C645.829 374.609 645.775 376.825 645.667 379.041C645.775 381.257 645.829 383.473 645.829 385.689C645.829 387.797 645.775 389.905 645.667 392.013V392.175C645.775 394.283 645.829 396.391 645.829 398.499C645.829 400.282 645.829 402.012 645.721 403.742C645.829 405.525 645.829 407.255 645.829 408.984C645.829 411.741 645.721 414.497 645.559 417.254C645.559 417.517 645.585 417.794 645.611 418.077C645.639 418.374 645.667 418.679 645.667 418.983V419.145C645.775 421.253 645.829 423.361 645.829 425.469C645.829 427.469 645.775 429.415 645.667 431.36V431.522V431.847C645.775 433.847 645.829 435.846 645.829 437.846C645.829 471.788 632.66 503.623 608.696 527.62L398.793 737.815C374.829 761.812 343.039 775 309.143 775C275.248 775 243.458 761.812 219.494 737.815L-8.65166 509.352C-34.8827 483.085 -47.1886 448.115 -45.5694 413.632C-45.7853 409.417 -45.7853 405.147 -45.5694 400.877C-45.5694 400.382 -45.5241 399.887 -45.4751 399.351L-45.4614 399.201C-45.7313 394.77 -45.7853 390.283 -45.6234 385.852C-45.7853 381.906 -45.7853 377.906 -45.5694 373.961C-45.7853 369.637 -45.7853 365.313 -45.5694 360.935C-45.8393 355.747 -45.7853 350.612 -45.4614 345.477C-47.7283 310.238 -35.4764 274.242 -8.65166 247.38L201.251 37.1853C225.215 13.1878 257.005 0 290.9 0C324.796 0 356.586 13.1878 380.55 37.1853L608.696 265.648C632.66 289.645 645.829 321.48 645.829 355.422ZM288.31 17.1333H290.9H293.545C294.409 17.1333 295.326 17.1874 296.19 17.2414C322.475 18.4846 348.382 29.1861 368.514 49.2921L596.606 277.755C604.648 285.808 611.178 294.78 616.198 304.347C620.516 312.616 623.754 321.264 625.805 330.182C626.939 334.938 627.694 339.694 628.18 344.505C628.666 349.909 628.828 355.26 628.558 360.665V360.666C628.558 360.99 628.558 361.314 628.504 361.584C628.504 362.177 628.453 362.77 628.404 363.346V363.347C628.381 363.61 628.359 363.87 628.342 364.124C628.234 365.746 628.072 367.313 627.856 368.88C627.827 369.224 627.784 369.553 627.741 369.875L627.741 369.876C627.703 370.161 627.666 370.439 627.64 370.718C627.586 371.15 627.532 371.583 627.424 372.015C627.343 372.502 627.262 373.002 627.181 373.501C627.1 374.001 627.02 374.501 626.939 374.988C626.885 375.339 626.817 375.677 626.75 376.015C626.717 376.178 626.685 376.341 626.653 376.506C626.62 376.682 626.589 376.86 626.561 377.042C622.459 397.526 612.474 417.146 596.606 433.036L386.757 643.23C365.33 664.687 337.264 675.389 309.197 675.389C281.131 675.389 253.065 664.687 231.638 643.23L3.49235 414.767C-12.2139 399.039 -22.1449 379.744 -26.3009 359.422C-26.3937 359.189 -26.4467 358.917 -26.4941 358.673C-26.5017 358.634 -26.5093 358.595 -26.5168 358.557C-26.6784 357.694 -26.8399 356.777 -27.0015 355.861L-27.0026 355.855L-26.7327 352.828C-26.8655 352.994 -26.978 353.181 -27.0951 353.376L-27.0953 353.376C-27.1684 353.498 -27.2434 353.622 -27.3264 353.747C-27.3804 353.477 -27.4208 353.193 -27.4613 352.909C-27.5018 352.625 -27.5423 352.342 -27.5963 352.071L-27.5964 352.071C-27.7043 351.368 -27.8122 350.666 -27.8662 349.963L-27.1645 341.045L-28.136 342.667L-26.6248 323.75L-25.7073 311.751C-23.6023 302.779 -20.3638 294.023 -15.938 285.7C-10.9725 276.241 -4.49568 267.377 3.4384 259.432L213.341 49.2381C233.419 29.1321 259.326 18.4305 285.611 17.1874C286.475 17.1874 287.392 17.1333 288.256 17.0793L288.31 17.1333ZM239.809 545.248L300.042 605.26L360.276 545.248C327.01 512.104 273.074 512.104 239.809 545.248ZM179.852 399.198C213.074 432.649 213.074 486.885 179.852 520.335L179.745 520.39L42.8803 382.581C19.9262 359.468 19.8724 321.904 42.8803 298.792L250.22 90.0218C277.743 62.3085 322.361 62.3085 349.885 90.0218L557.224 298.792C580.178 321.904 580.178 359.468 557.224 382.581L420.36 520.39C387.138 486.939 387.138 432.703 420.36 399.252L478.525 340.686L342.628 203.852V350.483C342.628 374.786 322.469 394.381 298.063 393.244C275.163 392.161 257.585 372.297 257.585 349.238V203.798L121.688 340.632L179.852 399.198Z" fill="url(#paint0_linear_1591_2908)"/>
	<defs>
		<linearGradient id="paint0_linear_1591_2908" x1="300.044" y1="0" x2="300.044" y2="775" gradientUnits="userSpaceOnUse">
			<stop stop-color="#11160E" stop-opacity="0.22"/>
			<stop offset="0.49" stop-color="#11160E" stop-opacity="0"/>
		</linearGradient>
	</defs>
</svg>
