<svg width="1728" height="1723" viewBox="0 0 1728 1723" fill="none" xmlns="http://www.w3.org/2000/svg">
<path fill-rule="evenodd" clip-rule="evenodd" d="M1407.02 609.753C1407.02 614.302 1406.94 618.851 1406.6 623.4C1406.85 627.688 1407.02 631.977 1407.02 636.35C1407.02 639.822 1406.94 643.295 1406.77 646.768C1406.94 650.241 1407.02 653.714 1407.02 657.186C1407.02 660.49 1406.94 663.793 1406.77 667.096V667.35C1406.94 670.654 1407.02 673.957 1407.02 677.26C1407.02 680.056 1407.02 682.766 1406.85 685.476C1407.02 688.272 1407.02 690.982 1407.02 693.693C1407.02 698.012 1406.85 702.332 1406.6 706.652C1406.6 707.065 1406.64 707.499 1406.68 707.943C1406.72 708.408 1406.77 708.885 1406.77 709.362V709.616C1406.94 712.92 1407.02 716.223 1407.02 719.526C1407.02 722.66 1406.94 725.71 1406.77 728.759V729.013V729.521C1406.94 732.655 1407.02 735.789 1407.02 738.923C1407.02 792.116 1386.38 842.005 1348.83 879.612L1019.88 1209.02C982.324 1246.62 932.505 1267.29 879.386 1267.29C826.267 1267.29 776.448 1246.62 738.892 1209.02L381.357 850.983C340.249 809.818 320.964 755.016 323.501 700.977C323.163 694.37 323.163 687.679 323.501 680.987C323.501 680.211 323.572 679.435 323.649 678.594L323.67 678.362C323.248 671.416 323.163 664.386 323.417 657.44C323.163 651.257 323.163 644.989 323.501 638.806C323.163 632.03 323.163 625.254 323.501 618.393C323.078 610.262 323.163 602.215 323.67 594.168C320.118 538.943 339.318 482.532 381.357 440.435L710.303 111.031C747.858 73.424 797.678 52.7568 850.797 52.7568C903.915 52.7568 953.735 73.424 991.291 111.031L1348.83 469.064C1386.38 506.672 1407.02 556.561 1407.02 609.753ZM846.737 79.6072H850.797H854.941C856.295 79.6072 857.733 79.6919 859.086 79.7766C900.278 81.7247 940.878 98.4956 972.428 130.005L1329.88 488.037C1342.48 500.658 1352.72 514.718 1360.58 529.711C1367.35 542.67 1372.43 556.222 1375.64 570.198C1377.42 577.652 1378.6 585.105 1379.36 592.644C1380.12 601.114 1380.38 609.499 1379.95 617.969V617.972C1379.95 618.479 1379.95 618.986 1379.87 619.409C1379.87 620.339 1379.79 621.269 1379.71 622.171C1379.68 622.584 1379.64 622.991 1379.61 623.39C1379.45 625.931 1379.19 628.388 1378.85 630.844C1378.81 631.384 1378.74 631.9 1378.67 632.405C1378.61 632.851 1378.55 633.287 1378.52 633.724C1378.43 634.401 1378.35 635.079 1378.18 635.757C1378.05 636.519 1377.92 637.302 1377.8 638.086C1377.67 638.869 1377.54 639.653 1377.42 640.415C1377.33 640.966 1377.23 641.495 1377.12 642.024C1377.01 642.554 1376.91 643.083 1376.82 643.634C1370.4 675.736 1354.75 706.482 1329.88 731.385L1001.02 1060.79C967.438 1094.41 923.454 1111.19 879.471 1111.19C835.487 1111.19 791.503 1094.41 757.924 1060.79L400.388 702.755C375.774 678.107 360.211 647.869 353.698 616.021C353.529 615.598 353.444 615.09 353.359 614.666C353.106 613.314 352.853 611.877 352.6 610.44L352.598 610.431L353.021 605.688C352.813 605.948 352.636 606.241 352.453 606.547C352.338 606.737 352.221 606.932 352.091 607.128C352.006 606.704 351.943 606.259 351.879 605.815C351.816 605.37 351.752 604.925 351.668 604.502L351.667 604.5C351.498 603.4 351.329 602.299 351.245 601.199L352.344 587.223L350.822 589.764L353.19 560.118L354.628 541.315C357.927 527.254 363.002 513.533 369.938 500.489C377.719 485.666 387.87 471.775 400.303 459.324L729.25 129.92C760.715 98.4109 801.315 81.64 842.508 79.6919C843.861 79.6919 845.299 79.6072 846.652 79.5225L846.737 79.6072ZM770.729 907.235L865.123 1001.28L959.518 907.235C907.386 855.294 822.861 855.294 770.729 907.235ZM676.773 678.355C728.836 730.777 728.836 815.772 676.773 868.195L676.604 868.279L462.118 652.314C426.146 616.093 426.062 557.225 462.118 521.004L787.049 193.833C830.182 150.402 900.104 150.402 943.237 193.833L1268.17 521.004C1304.14 557.225 1304.14 616.093 1268.17 652.314L1053.68 868.279C1001.62 815.857 1001.62 730.862 1053.68 678.44L1144.83 586.659L931.865 372.221V602.012C931.865 640.099 900.273 670.806 862.026 669.025C826.138 667.328 798.59 636.197 798.59 600.061V372.136L585.62 586.574L676.773 678.355Z" fill="url(#paint0_linear_1252_2536)"/>
<defs>
<linearGradient id="paint0_linear_1252_2536" x1="865.125" y1="52.7568" x2="865.125" y2="1267.29" gradientUnits="userSpaceOnUse">
<stop stop-color="#11160E" stop-opacity="0.73"/>
<stop offset="0.394883" stop-color="#11160E" stop-opacity="0"/>
</linearGradient>
</defs>
</svg>
